Coordinates
version=1
nRows=31
nColumns=38
inDegrees=no

Units are S.I. units (second, meters, Newtons, ...)
If the header above contains a line with 'inDegrees', this indicates whether rotational values are in degrees (yes) or radians (no).

endheader
time	pelvis_tilt	pelvis_list	pelvis_rotation	pelvis_tx	pelvis_ty	pelvis_tz	hip_flexion_r	hip_adduction_r	hip_rotation_r	knee_angle_r	ankle_angle_r	subtalar_angle_r	mtp_angle_r	hip_flexion_l	hip_adduction_l	hip_rotation_l	knee_angle_l	ankle_angle_l	subtalar_angle_l	mtp_angle_l	lumbar_extension	lumbar_bending	lumbar_rotation	arm_flex_r	arm_add_r	arm_rot_r	elbow_flex_r	pro_sup_r	wrist_flex_r	wrist_dev_r	arm_flex_l	arm_add_l	arm_rot_l	elbow_flex_l	pro_sup_l	wrist_flex_l	wrist_dev_l
50	0.302447	1.46148	1.25293	0.658124	0.830912	1.05068	0.207363	-0.072822	-0.308442	0.342251	-0.35056	0	0	0.133339	-0.089916	-0.371746	0.212861	-0.441356	0	0	0.08091	0.0950146	-0.328988	0.265449	-0.188598	0.633649	0.194042	1.5708	0	0	-0.379112	-0.229565	-0.0422982	0.857483	1.32968	0	0
50.01	0.294904	1.46105	1.26001	0.658102	0.830088	1.05007	0.213705	-0.0743133	-0.306239	0.352114	-0.345599	0	0	0.141835	-0.0912252	-0.371889	0.227878	-0.433954	0	0	0.0764941	0.0983103	-0.33036	0.272476	-0.187958	0.631563	0.186753	1.5708	0	0	-0.37706	-0.228858	-0.0443881	0.863007	1.33248	0	0
50.02	0.288508	1.46073	1.26613	0.65806	0.829214	1.04937	0.220245	-0.0758517	-0.303796	0.362814	-0.340438	0	0	0.150567	-0.0929592	-0.371217	0.243877	-0.426544	0	0	0.0717649	0.101835	-0.331882	0.279927	-0.187125	0.629143	0.178716	1.5708	0	0	-0.374762	-0.228292	-0.0462485	0.868597	1.33471	0	0
50.03	0.282359	1.45977	1.27143	0.658083	0.828264	1.0485	0.228225	-0.0773564	-0.302387	0.374814	-0.334947	0	0	0.160609	-0.0951601	-0.370971	0.261157	-0.41866	0	0	0.0675778	0.105698	-0.332557	0.287649	-0.186169	0.626114	0.169811	1.5708	0	0	-0.372402	-0.227735	-0.0480993	0.874353	1.33674	0	0
50.04	0.276209	1.45847	1.27707	0.658065	0.827367	1.04737	0.237189	-0.0789846	-0.300745	0.388739	-0.32111	0	0	0.171896	-0.0978369	-0.371453	0.280829	-0.401818	0	0	0.0643629	0.109806	-0.336211	0.302606	-0.176152	0.607964	0.141218	1.5708	0	0	-0.372664	-0.223414	-0.0588992	0.880911	1.34586	0	0
50.05	0.271423	1.45689	1.28213	0.657965	0.826586	1.04611	0.246386	-0.0804393	-0.298218	0.4028	-0.313546	0	0	0.183521	-0.100314	-0.370275	0.299979	-0.392078	0	0	0.0614072	0.114156	-0.337592	0.309706	-0.175841	0.605111	0.132206	1.5708	0	0	-0.370817	-0.222793	-0.0601061	0.886988	1.34734	0	0
50.06	0.266688	1.45514	1.28598	0.657939	0.825675	1.04467	0.257091	-0.0819692	-0.294561	0.419294	-0.305658	0	0	0.195503	-0.103316	-0.369636	0.319994	-0.381871	0	0	0.0581309	0.11887	-0.337391	0.317049	-0.175775	0.602152	0.123413	1.5708	0	0	-0.368171	-0.222277	-0.0609206	0.892861	1.3484	0	0
50.07	0.261181	1.45294	1.2897	0.65798	0.824652	1.04303	0.269326	-0.0834644	-0.290242	0.43727	-0.297117	0	0	0.208111	-0.106726	-0.369276	0.340699	-0.371142	0	0	0.0549871	0.123857	-0.335984	0.324548	-0.175714	0.598718	0.114465	1.5708	0	0	-0.364894	-0.221951	-0.0612071	0.89839	1.34914	0	0
50.08	0.254216	1.45065	1.29433	0.658052	0.823644	1.04119	0.282306	-0.0850681	-0.28593	0.456223	-0.287854	0	0	0.220778	-0.110228	-0.369957	0.361752	-0.359988	0	0	0.0519078	0.128803	-0.333762	0.331777	-0.175673	0.594713	0.105542	1.5708	0	0	-0.361503	-0.221739	-0.0613067	0.903994	1.34935	0	0
50.09	0.244474	1.44889	1.3017	0.65811	0.822722	1.03918	0.295203	-0.0871038	-0.280691	0.47585	-0.277841	0	0	0.232618	-0.113277	-0.370867	0.382656	-0.348484	0	0	0.0485739	0.133157	-0.330998	0.338623	-0.175947	0.589912	0.0969435	1.5708	0	0	-0.35821	-0.221601	-0.0615926	0.910078	1.34893	0	0
50.1	0.230599	1.44714	1.31284	0.658228	0.821789	1.03696	0.309074	-0.0900999	-0.275572	0.497787	-0.267542	0	0	0.2445	-0.116061	-0.371994	0.403982	-0.336681	0	0	0.0454392	0.136816	-0.327671	0.345074	-0.176194	0.583806	0.0886758	1.5708	0	0	-0.355012	-0.221935	-0.0613864	0.916242	1.34908	0	0
50.11	0.21265	1.44555	1.32764	0.658412	0.82085	1.03454	0.32354	-0.0940304	-0.270135	0.521182	-0.256867	0	0	0.256385	-0.118289	-0.373759	0.425496	-0.324594	0	0	0.0423687	0.139679	-0.32372	0.35119	-0.176588	0.578627	0.0809146	1.5708	0	0	-0.351749	-0.222815	-0.060592	0.92227	1.3496	0	0
50.12	0.191577	1.44502	1.34568	0.65862	0.820005	1.032	0.337075	-0.0981329	-0.265122	0.544094	-0.245613	0	0	0.267154	-0.12	-0.375906	0.447445	-0.312255	0	0	0.03858	0.141705	-0.319908	0.357278	-0.177025	0.574165	0.0735606	1.5708	0	0	-0.348493	-0.224218	-0.0591647	0.927853	1.34938	0	0
50.13	0.164301	1.44385	1.36913	0.658914	0.819109	1.02926	0.352318	-0.103396	-0.257096	0.57002	-0.233797	0	0	0.278776	-0.121298	-0.378233	0.470075	-0.29973	0	0	0.035561	0.142924	-0.315181	0.362768	-0.177743	0.57073	0.0671697	1.5708	0	0	-0.344934	-0.225871	-0.0572404	0.932636	1.34848	0	0
50.14	0.13304	1.44308	1.39713	0.659174	0.818283	1.02639	0.367383	-0.108973	-0.250828	0.595767	-0.221657	0	0	0.290204	-0.121762	-0.380861	0.493012	-0.287126	0	0	0.0324775	0.143344	-0.310774	0.367864	-0.178737	0.568235	0.0613135	1.5708	0	0	-0.341117	-0.22784	-0.0547722	0.936784	1.3473	0	0
50.15	0.0997793	1.44288	1.42782	0.659371	0.817517	1.02338	0.38184	-0.115221	-0.244507	0.622151	-0.209251	0	0	0.301222	-0.121798	-0.383258	0.516633	-0.274339	0	0	0.0288567	0.143177	-0.307005	0.372869	-0.179747	0.564295	0.0559826	1.5708	0	0	-0.337097	-0.230048	-0.0523469	0.940692	1.34612	0	0
50.16	0.0697786	1.44247	1.45541	0.659577	0.816638	1.02022	0.396109	-0.121185	-0.239382	0.647984	-0.197279	0	0	0.312748	-0.122539	-0.384425	0.541422	-0.26123	0	0	0.0249497	0.143456	-0.30352	0.378202	-0.180873	0.559221	0.0513476	1.5708	0	0	-0.332395	-0.232428	-0.049749	0.943945	1.34513	0	0
50.17	0.0404085	1.44193	1.48277	0.659754	0.815795	1.01687	0.409993	-0.127068	-0.234663	0.673018	-0.18565	0	0	0.324421	-0.122885	-0.384347	0.566137	-0.247714	0	0	0.0212311	0.143652	-0.30051	0.383473	-0.182078	0.554879	0.0468966	1.5708	0	0	-0.327767	-0.234951	-0.0469939	0.947034	1.34432	0	0
50.18	0.01179	1.44153	1.51009	0.659836	0.81503	1.01342	0.423115	-0.133189	-0.230909	0.69728	-0.173626	0	0	0.335948	-0.123189	-0.38463	0.591078	-0.234287	0	0	0.0173666	0.143874	-0.298113	0.388495	-0.18331	0.549638	0.0425222	1.5708	0	0	-0.322813	-0.237288	-0.0442701	0.949452	1.34441	0	0
50.19	-0.0119901	1.44164	1.53318	0.659889	0.814319	1.00993	0.43495	-0.138734	-0.228151	0.720545	-0.169201	0	0	0.347007	-0.123785	-0.383367	0.616298	-0.227142	0	0	0.0122222	0.144656	-0.297124	0.39151	-0.186649	0.556336	0.0449674	1.5708	0	0	-0.318146	-0.237942	-0.0457085	0.951737	1.34856	0	0
50.2	-0.0340516	1.44121	1.55461	0.659919	0.813623	1.0063	0.447403	-0.144203	-0.225258	0.744992	-0.157184	0	0	0.358471	-0.124821	-0.382103	0.641819	-0.213616	0	0	0.00825541	0.145912	-0.295517	0.396359	-0.188055	0.54943	0.0411929	1.5708	0	0	-0.312346	-0.240104	-0.0421353	0.952235	1.34876	0	0
50.21	-0.0549469	1.44035	1.57493	0.65991	0.812951	1.00253	0.460201	-0.149478	-0.221623	0.769338	-0.145015	0	0	0.370359	-0.126003	-0.382163	0.667224	-0.200132	0	0	0.00480723	0.147302	-0.293947	0.401086	-0.189477	0.540921	0.0373513	1.5708	0	0	-0.306495	-0.241687	-0.0392943	0.952211	1.34956	0	0
50.22	-0.0733385	1.43937	1.5926	0.659905	0.812336	0.998636	0.47321	-0.154143	-0.217517	0.793403	-0.132999	0	0	0.382222	-0.127424	-0.381683	0.692559	-0.186666	0	0	0.00155925	0.148995	-0.292007	0.405461	-0.191316	0.532451	0.0339905	1.5708	0	0	-0.30037	-0.242664	-0.0371028	0.951431	1.35128	0	0
50.23	-0.0914262	1.43864	1.61049	0.659893	0.811754	0.994597	0.485744	-0.15807	-0.213813	0.815105	-0.121202	0	0	0.393745	-0.128746	-0.380519	0.717844	-0.173186	0	0	-0.00180377	0.150782	-0.290667	0.409857	-0.193221	0.525035	0.0308483	1.5708	0	0	-0.294322	-0.243655	-0.0349706	0.95039	1.35352	0	0
50.24	-0.107415	1.43836	1.62689	0.65982	0.811107	0.990462	0.497851	-0.162369	-0.210461	0.837999	-0.109934	0	0	0.404966	-0.130023	-0.377803	0.743372	-0.15963	0	0	-0.00582874	0.153154	-0.289685	0.414759	-0.195286	0.518675	0.0275427	1.5708	0	0	-0.287626	-0.244847	-0.0322504	0.948992	1.35595	0	0
50.25	-0.124044	1.4381	1.64418	0.65973	0.810471	0.98617	0.509507	-0.166752	-0.206594	0.859131	-0.098986	0	0	0.416241	-0.130567	-0.374501	0.768575	-0.145829	0	0	-0.00973216	0.155674	-0.28901	0.419968	-0.197292	0.513361	0.0236773	1.5708	0	0	-0.281025	-0.246217	-0.029182	0.947451	1.35846	0	0
50.26	-0.141915	1.43732	1.66249	0.659617	0.8099	0.981752	0.521763	-0.171602	-0.202735	0.881881	-0.0878807	0	0	0.427937	-0.130919	-0.372604	0.793576	-0.132146	0	0	-0.0128734	0.158186	-0.288107	0.424979	-0.199193	0.507956	0.0191666	1.5708	0	0	-0.274476	-0.247294	-0.0262533	0.945233	1.36231	0	0
50.27	-0.159747	1.43664	1.68046	0.659497	0.809356	0.977248	0.533925	-0.17633	-0.198617	0.905005	-0.077609	0	0	0.439161	-0.131417	-0.370976	0.81835	-0.119805	0	0	-0.0161958	0.160982	-0.286922	0.430021	-0.201318	0.502417	0.0148157	1.5708	0	0	-0.267895	-0.247875	-0.0240755	0.942694	1.36868	0	0
50.28	-0.176106	1.43632	1.69738	0.659335	0.808808	0.972661	0.545567	-0.180946	-0.194452	0.928195	-0.0662769	0	0	0.4501	-0.132081	-0.369186	0.843406	-0.106747	0	0	-0.0195981	0.164406	-0.285909	0.435878	-0.2034	0.496794	0.00896922	1.5708	0	0	-0.260902	-0.247796	-0.0226738	0.939536	1.38004	0	0
50.29	-0.19086	1.43647	1.7129	0.659145	0.808202	0.968028	0.556525	-0.185535	-0.191191	0.95154	-0.0546345	0	0	0.460677	-0.13344	-0.368494	0.868986	-0.0938251	0	0	-0.0234754	0.168564	-0.284814	0.442504	-0.20546	0.492661	0.00187661	1.5708	0	0	-0.253195	-0.24685	-0.0226236	0.935759	1.39703	0	0
50.3	-0.204443	1.43715	1.72618	0.659029	0.807542	0.963439	0.566747	-0.1893	-0.187827	0.973102	-0.0469729	0	0	0.470157	-0.136267	-0.370327	0.894122	-0.085233	0	0	-0.0288418	0.173226	-0.282854	0.448978	-0.208397	0.491065	0	1.5708	0	0	-0.245085	-0.245946	-0.0224387	0.932296	1.41263	0	0
